# xmcd
# 
# Track frame offsets:
#     150
#     16652
#     36637
#     52206
#     70140
#     87324
#     104321
#     122277
#     139551
#     153055
#     171055
#     190359
#     204718
#     218199
#     235376
#     249925
#     266189
#     281501
#     297585
#     312948
#     331288
# 
# Disc length: 4591
# 
# Revision: 21
# Processed by: cddbd v1.5.2PL0 Copyright (c) Steve Scherf et al.
# Submitted via: BonkEnc v1.0.15
# 
DISCID=3911ed15
DTITLE=Various Artist - Bravo Hits 53, Disc 2
DYEAR=2006
DGENRE=Pop
TTITLE0=Kelly Clarkson - Because of you
TTITLE1=Eros Ramazzotti and Anastacia - I belong to you (Il ritmo della passione)
TTITLE2=NE-YO - So sick
TTITLE3=Karmah - Just be good to me
TTITLE4=Tokio Hotel - Rette mich
TTITLE5=Lafee - Virus
TTITLE6=Silbermond - Unendlich
TTITLE7=Depeche Mode - Suffer well
TTITLE8=Ashlee Simpson - Boyfriend
TTITLE9=Reamonn - Promise
TTITLE10=The Rasmus - Shot
TTITLE11=Christina Stürmer - Immer an Euch geglaubt
TTITLE12=Killerpilze - Richtig Scheiße (auf 'ne schöne Art und Weise)
TTITLE13=Rivo Drei - Wie Flugzeuge
TTITLE14=Elli - Get up
TTITLE15=Neuser - Von vorn anfangen
TTITLE16=Annett Louisan - Wer bin ich wirklich
TTITLE17=Nathalie Tineo - Ich liebe dich
TTITLE18=Jeanette - Endless love
TTITLE19=Marc Terenzi - Rock the nation
TTITLE20=Die Toten Hosen - Weltmeister
EXTD=
EXTT0=
EXTT1=
EXTT2=
EXTT3=
EXTT4=
EXTT5=
EXTT6=
EXTT7=
EXTT8=
EXTT9=
EXTT10=
EXTT11=
EXTT12=
EXTT13=
EXTT14=
EXTT15=
EXTT16=
EXTT17=
EXTT18=
EXTT19=
EXTT20=
PLAYORDER=
